<mxfile host="app.diagrams.net" modified="2024-03-11T19:08:13.752Z" agent="Mozilla/5.0 (Windows NT 10.0; Win64; x64; rv:109.0) Gecko/20100101 Firefox/115.0" etag="-1fm94fY0CWPeEixQ4fl" version="24.0.2" type="github">
  <diagram name="Page-1" id="OkwSu7kAsfcU61qaipK9">
    <mxGraphModel dx="852" dy="651" grid="1" gridSize="10" guides="1" tooltips="1" connect="1" arrows="1" fold="1" page="1" pageScale="1" pageWidth="1169" pageHeight="827" math="0" shadow="0">
      <root>
        <mxCell id="0" />
        <mxCell id="1" parent="0" />
        <mxCell id="szZuahY6KpORsgiWa8NN-4" style="edgeStyle=orthogonalEdgeStyle;rounded=0;orthogonalLoop=1;jettySize=auto;html=1;exitX=1;exitY=0.5;exitDx=0;exitDy=0;entryX=0;entryY=0.5;entryDx=0;entryDy=0;" edge="1" parent="1" source="szZuahY6KpORsgiWa8NN-1" target="szZuahY6KpORsgiWa8NN-3">
          <mxGeometry relative="1" as="geometry" />
        </mxCell>
        <mxCell id="szZuahY6KpORsgiWa8NN-10" style="edgeStyle=orthogonalEdgeStyle;rounded=0;orthogonalLoop=1;jettySize=auto;html=1;exitX=0.5;exitY=1;exitDx=0;exitDy=0;entryX=0.5;entryY=0;entryDx=0;entryDy=0;" edge="1" parent="1" source="szZuahY6KpORsgiWa8NN-1" target="szZuahY6KpORsgiWa8NN-9">
          <mxGeometry relative="1" as="geometry" />
        </mxCell>
        <mxCell id="szZuahY6KpORsgiWa8NN-19" style="edgeStyle=orthogonalEdgeStyle;rounded=0;orthogonalLoop=1;jettySize=auto;html=1;entryX=0.5;entryY=1;entryDx=0;entryDy=0;" edge="1" parent="1" source="szZuahY6KpORsgiWa8NN-1" target="szZuahY6KpORsgiWa8NN-18">
          <mxGeometry relative="1" as="geometry" />
        </mxCell>
        <mxCell id="szZuahY6KpORsgiWa8NN-1" value="&lt;div&gt;ProdajnoMjesto&lt;/div&gt;" style="whiteSpace=wrap;html=1;align=center;" vertex="1" parent="1">
          <mxGeometry x="240" y="370" width="100" height="44" as="geometry" />
        </mxCell>
        <mxCell id="szZuahY6KpORsgiWa8NN-2" value="GrupaProizvoda" style="whiteSpace=wrap;html=1;align=center;" vertex="1" parent="1">
          <mxGeometry x="564" y="374" width="100" height="40" as="geometry" />
        </mxCell>
        <mxCell id="szZuahY6KpORsgiWa8NN-5" style="edgeStyle=orthogonalEdgeStyle;rounded=0;orthogonalLoop=1;jettySize=auto;html=1;exitX=1;exitY=0.5;exitDx=0;exitDy=0;entryX=0;entryY=0.5;entryDx=0;entryDy=0;" edge="1" parent="1" source="szZuahY6KpORsgiWa8NN-3" target="szZuahY6KpORsgiWa8NN-2">
          <mxGeometry relative="1" as="geometry" />
        </mxCell>
        <mxCell id="szZuahY6KpORsgiWa8NN-3" value="Spada" style="shape=rhombus;perimeter=rhombusPerimeter;whiteSpace=wrap;html=1;align=center;" vertex="1" parent="1">
          <mxGeometry x="390" y="364" width="120" height="60" as="geometry" />
        </mxCell>
        <mxCell id="szZuahY6KpORsgiWa8NN-6" value="M" style="text;html=1;align=center;verticalAlign=middle;whiteSpace=wrap;rounded=0;" vertex="1" parent="1">
          <mxGeometry x="340" y="364" width="60" height="30" as="geometry" />
        </mxCell>
        <mxCell id="szZuahY6KpORsgiWa8NN-7" value="1" style="text;html=1;align=center;verticalAlign=middle;whiteSpace=wrap;rounded=0;" vertex="1" parent="1">
          <mxGeometry x="504" y="364" width="60" height="30" as="geometry" />
        </mxCell>
        <mxCell id="szZuahY6KpORsgiWa8NN-8" value="Proizvođač" style="whiteSpace=wrap;html=1;align=center;" vertex="1" parent="1">
          <mxGeometry x="240" y="550" width="100" height="40" as="geometry" />
        </mxCell>
        <mxCell id="szZuahY6KpORsgiWa8NN-11" style="edgeStyle=orthogonalEdgeStyle;rounded=0;orthogonalLoop=1;jettySize=auto;html=1;exitX=0.5;exitY=1;exitDx=0;exitDy=0;entryX=0.5;entryY=0;entryDx=0;entryDy=0;" edge="1" parent="1" source="szZuahY6KpORsgiWa8NN-9" target="szZuahY6KpORsgiWa8NN-8">
          <mxGeometry relative="1" as="geometry" />
        </mxCell>
        <mxCell id="szZuahY6KpORsgiWa8NN-9" value="Ima" style="shape=rhombus;perimeter=rhombusPerimeter;whiteSpace=wrap;html=1;align=center;" vertex="1" parent="1">
          <mxGeometry x="230" y="450" width="120" height="60" as="geometry" />
        </mxCell>
        <mxCell id="szZuahY6KpORsgiWa8NN-12" value="1" style="text;html=1;align=center;verticalAlign=middle;whiteSpace=wrap;rounded=0;" vertex="1" parent="1">
          <mxGeometry x="280" y="414" width="60" height="30" as="geometry" />
        </mxCell>
        <mxCell id="szZuahY6KpORsgiWa8NN-13" value="M" style="text;html=1;align=center;verticalAlign=middle;whiteSpace=wrap;rounded=0;" vertex="1" parent="1">
          <mxGeometry x="280" y="510" width="60" height="30" as="geometry" />
        </mxCell>
        <mxCell id="szZuahY6KpORsgiWa8NN-14" value="Voditelj" style="whiteSpace=wrap;html=1;align=center;" vertex="1" parent="1">
          <mxGeometry x="240" y="190" width="100" height="40" as="geometry" />
        </mxCell>
        <mxCell id="szZuahY6KpORsgiWa8NN-20" style="edgeStyle=orthogonalEdgeStyle;rounded=0;orthogonalLoop=1;jettySize=auto;html=1;entryX=0.5;entryY=1;entryDx=0;entryDy=0;" edge="1" parent="1" source="szZuahY6KpORsgiWa8NN-18" target="szZuahY6KpORsgiWa8NN-14">
          <mxGeometry relative="1" as="geometry" />
        </mxCell>
        <mxCell id="szZuahY6KpORsgiWa8NN-18" value="Vodi" style="shape=rhombus;perimeter=rhombusPerimeter;whiteSpace=wrap;html=1;align=center;" vertex="1" parent="1">
          <mxGeometry x="230" y="270" width="120" height="60" as="geometry" />
        </mxCell>
        <mxCell id="szZuahY6KpORsgiWa8NN-21" value="1" style="text;html=1;align=center;verticalAlign=middle;whiteSpace=wrap;rounded=0;" vertex="1" parent="1">
          <mxGeometry x="290" y="240" width="60" height="30" as="geometry" />
        </mxCell>
        <mxCell id="szZuahY6KpORsgiWa8NN-22" value="M" style="text;html=1;align=center;verticalAlign=middle;whiteSpace=wrap;rounded=0;" vertex="1" parent="1">
          <mxGeometry x="290" y="330" width="60" height="30" as="geometry" />
        </mxCell>
      </root>
    </mxGraphModel>
  </diagram>
</mxfile>
